<svg id="regular" enable-background="new 0 0 24 24" height="512" viewBox="0 0 24 24" width="512" xmlns="http://www.w3.org/2000/svg"><g><path d="m19.31 5.26c-.175 0-.352-.061-.494-.186-1.893-1.66-4.314-2.574-6.816-2.574-2.358 0-4.664.827-6.494 2.33-.321.263-.794.216-1.056-.104s-.216-.793.104-1.056c2.097-1.722 4.742-2.67 7.446-2.67 2.866 0 5.638 1.046 7.805 2.946.311.273.342.747.069 1.059-.148.168-.356.255-.564.255z"/></g><g><path d="m7.25 5h-2.5c-.414 0-.75-.336-.75-.75v-2.5c0-.414.336-.75.75-.75s.75.336.75.75v1.75h1.75c.414 0 .75.336.75.75s-.336.75-.75.75z"/></g><g><path d="m12.12 23c-2.867 0-5.639-1.046-7.805-2.946-.312-.273-.342-.747-.069-1.059.273-.311.747-.342 1.059-.069 1.892 1.66 4.312 2.574 6.815 2.574 2.358 0 4.664-.827 6.494-2.33.32-.264.792-.217 1.056.104.263.32.216.793-.104 1.056-2.097 1.722-4.742 2.67-7.446 2.67z"/></g><g><path d="m19.25 23c-.414 0-.75-.336-.75-.75v-1.75h-1.75c-.414 0-.75-.336-.75-.75s.336-.75.75-.75h2.5c.414 0 .75.336.75.75v2.5c0 .414-.336.75-.75.75z"/></g><g><path d="m5 12c-1.378 0-2.5-1.122-2.5-2.5s1.122-2.5 2.5-2.5 2.5 1.122 2.5 2.5-1.122 2.5-2.5 2.5zm0-3.5c-.551 0-1 .449-1 1s.449 1 1 1 1-.449 1-1-.449-1-1-1z"/></g><g><path d="m9.25 17c-.414 0-.75-.336-.75-.75v-.5c0-.689-.561-1.25-1.25-1.25h-4.5c-.689 0-1.25.561-1.25 1.25v.5c0 .414-.336.75-.75.75s-.75-.336-.75-.75v-.5c0-1.517 1.233-2.75 2.75-2.75h4.5c1.517 0 2.75 1.233 2.75 2.75v.5c0 .414-.336.75-.75.75z"/></g><g><path d="m19 12c-1.378 0-2.5-1.122-2.5-2.5s1.122-2.5 2.5-2.5 2.5 1.122 2.5 2.5-1.122 2.5-2.5 2.5zm0-3.5c-.551 0-1 .449-1 1s.449 1 1 1 1-.449 1-1-.449-1-1-1z"/></g><g><path d="m23.25 17c-.414 0-.75-.336-.75-.75v-.5c0-.689-.561-1.25-1.25-1.25h-4.5c-.689 0-1.25.561-1.25 1.25v.5c0 .414-.336.75-.75.75s-.75-.336-.75-.75v-.5c0-1.517 1.233-2.75 2.75-2.75h4.5c1.517 0 2.75 1.233 2.75 2.75v.5c0 .414-.336.75-.75.75z"/></g></svg>