<svg id="Capa_1" enable-background="new 0 0 512 512" height="512" viewBox="0 0 512 512" width="512" xmlns="http://www.w3.org/2000/svg"><g id="Line_cutting_stoke_Expand"><g><path d="m376 294.871c.004 10.43-1.769 20.785-5.245 30.619l-42.3 119.848c-.302.855-.456 1.755-.455 2.662v32h-16v16h24c4.418 0 8-3.582 8-8v-38.63l41.843-118.555c4.08-11.544 6.163-23.7 6.157-35.944v-6.871h-16z"/><path d="m184 456h24.457c8.028-.026 15.078-5.343 17.308-13.055l13.927-48.745-15.384-4.4-13.928 48.749c-.247.857-1.031 1.448-1.923 1.451h-95.766c-5.799 0-10.768-4.147-11.806-9.853l-13.014-71.578c-.692-3.804-4.005-6.569-7.871-6.569h-48v-21.041l46.074-53.753c1.243-1.45 1.926-3.296 1.926-5.206v-24h-16v21.041l-46.074 53.753c-1.243 1.45-1.926 3.296-1.926 5.206v32c0 4.418 3.582 8 8 8h49.323l11.82 65.01c2.416 13.316 14.014 22.996 27.548 22.99h55.309v32c0 4.418 3.582 8 8 8h120v-16h-112z"/><path d="m80 214c0-78.3 63.7-142 142-142h12c4.425 0 8.888.2 13.263.61l1.474-15.931c-4.863-.45-9.821-.679-14.737-.679h-12c-87.121 0-158 70.879-158 158v18h16z"/><path d="m188.161 311.019 23.8 13.018 13.018 23.8c2.12 3.876 6.981 5.3 10.857 3.181 1.343-.734 2.446-1.838 3.181-3.181l13.018-23.8 23.8-13.018c3.876-2.12 5.3-6.981 3.181-10.857-.734-1.343-1.838-2.446-3.181-3.181l-23.8-13.018-13.018-23.8c-2.12-3.876-6.981-5.3-10.857-3.181-1.343.734-2.446 1.838-3.181 3.181l-13.018 23.8-23.8 13.018c-3.876 2.12-5.3 6.981-3.181 10.857.735 1.343 1.838 2.447 3.181 3.181zm33.539-14.143c1.342-.734 2.446-1.838 3.18-3.18l7.12-13.024 7.124 13.024c.734 1.342 1.838 2.446 3.18 3.18l13.024 7.124-13.028 7.124c-1.342.734-2.446 1.838-3.18 3.18l-7.12 13.024-7.124-13.028c-.734-1.342-1.838-2.446-3.18-3.18l-13.024-7.12z"/><path d="m195.794 235.794 16.045-8.775c3.876-2.12 5.3-6.981 3.181-10.857-.734-1.343-1.838-2.446-3.181-3.181l-16.045-8.775-8.775-16.045c-2.12-3.876-6.981-5.3-10.857-3.181-1.343.734-2.446 1.838-3.181 3.181l-8.775 16.045-16.045 8.775c-3.876 2.12-5.3 6.981-3.181 10.857.734 1.343 1.838 2.446 3.181 3.181l16.045 8.775 8.775 16.045c2.12 3.876 6.981 5.3 10.857 3.181 1.343-.734 2.446-1.838 3.181-3.181zm-12.913-9.733-2.881 5.267-2.881-5.267c-.734-1.343-1.837-2.446-3.18-3.18l-5.267-2.881 5.267-2.881c1.343-.734 2.446-1.837 3.18-3.18l2.881-5.267 2.881 5.267c.734 1.343 1.837 2.446 3.18 3.18l5.267 2.881-5.267 2.881c-1.343.734-2.446 1.837-3.18 3.18z"/><path d="m488 112h-21.019c-1.707-5.282-3.836-10.419-6.368-15.359l14.867-14.867c3.124-3.124 3.124-8.189 0-11.314l-33.941-33.94c-3.124-3.124-8.189-3.124-11.314 0l-14.866 14.866c-4.941-2.531-10.077-4.661-15.359-6.368v-21.018c0-4.418-3.582-8-8-8h-48c-4.418 0-8 3.582-8 8v21.018c-5.282 1.707-10.418 3.837-15.359 6.368l-14.866-14.865c-3.124-3.124-8.189-3.124-11.314 0l-33.941 33.939c-3.124 3.124-3.124 8.189 0 11.314l14.867 14.867c-2.532 4.94-4.661 10.077-6.368 15.359h-21.019c-4.418 0-8 3.582-8 8v48c0 4.418 3.582 8 8 8h21.019c1.707 5.282 3.836 10.419 6.368 15.359l-14.867 14.867c-3.124 3.124-3.124 8.189 0 11.314l33.941 33.94c3.124 3.124 8.189 3.124 11.314 0l14.866-14.865c4.941 2.531 10.077 4.66 15.359 6.367v21.018c0 4.418 3.582 8 8 8h48c4.418 0 8-3.582 8-8v-21.018c5.282-1.707 10.418-3.837 15.359-6.368l14.866 14.865c3.124 3.124 8.189 3.124 11.314 0l33.941-33.94c3.124-3.124 3.124-8.189 0-11.314l-14.867-14.867c2.532-4.94 4.661-10.076 6.368-15.358h21.019c4.418 0 8-3.582 8-8v-48c0-4.418-3.582-8-8-8zm-8 48h-19.024c-3.65 0-6.837 2.471-7.747 6.006-2.052 7.97-5.219 15.61-9.409 22.694-1.858 3.144-1.351 7.146 1.231 9.728l13.459 13.458-22.628 22.624-13.457-13.458c-2.581-2.583-6.584-3.09-9.728-1.232-7.082 4.189-14.721 7.356-22.69 9.408-3.536.91-6.007 4.097-6.007 7.748v19.024h-32v-19.024c0-3.651-2.471-6.839-6.007-7.748-7.969-2.052-15.608-5.219-22.69-9.408-3.144-1.858-7.147-1.351-9.728 1.232l-13.457 13.458-22.628-22.627 13.459-13.458c2.582-2.582 3.089-6.584 1.231-9.728-4.189-7.083-7.357-14.722-9.409-22.691-.91-3.535-4.097-6.006-7.747-6.006h-19.024v-32h19.024c3.65 0 6.837-2.471 7.747-6.006 2.052-7.97 5.219-15.61 9.409-22.694 1.858-3.144 1.351-7.146-1.231-9.728l-13.459-13.455 22.628-22.627 13.457 13.458c2.581 2.581 6.582 3.088 9.725 1.232 7.082-4.189 14.721-7.356 22.69-9.408 3.537-.908 6.01-4.096 6.01-7.748v-19.024h32v19.024c0 3.651 2.471 6.839 6.007 7.748 7.97 2.051 15.61 5.219 22.693 9.408 3.144 1.858 7.147 1.351 9.728-1.232l13.454-13.458 22.628 22.627-13.459 13.458c-2.581 2.581-3.087 6.582-1.231 9.725 4.189 7.083 7.357 14.722 9.409 22.691.909 3.536 4.096 6.008 7.747 6.009h19.024z"/><path d="m411.385 123.433c3.057 6.424 4.634 13.452 4.615 20.567 0 26.51-21.491 48-48 48s-48-21.491-48-48 21.491-48 48-48c12.9 0 25.257 5.193 34.286 14.407l11.428-11.2c-24.696-25.145-65.1-25.51-90.246-.814-25.145 24.696-25.51 65.1-.814 90.246 24.696 25.145 65.1 25.51 90.246.814 19.404-19.057 24.598-48.318 12.938-72.889z"/></g></g></svg>